{"title":"2 Broke Girls Season 1 Complete [XWRteam]","uid":7744683,"size":3939614323,"categoryP":"video","categoryS":"tv_shows","magnet":"?xt=urn:btih:97f4ca029043ca88790fa5f20b8ed5fe3a3ffdb5&amp;dn=2+Broke+Girls+Season+1+Complete+%5BXWRteam%5D&amp;tr=udp%3A%2F%2Ftracker.openbittorrent.com%3A80&amp;tr=udp%3A%2F%2Fopen.demonii.com%3A1337&amp;tr=udp%3A%2F%2Ftracker.coppersurfer.tk%3A6969&amp;tr=udp%3A%2F%2Fexodus.desync.com%3A6969","seeders":1,"leechers":0,"uploader":"XWRteam","files":24,"time":1350727753,"description":"++++++++++++++++++++++++++++++++++++\n++++++++++++++++++++++++++++++++++++\n\n    We are xtremes in our life!\n          We are XWRteam\n\n++++++++++++++++++++++++++++++++++++\n++++++++++++++++++++++++++++++++++++\n\nfor more torrents visit our page at\n &lt;a href=&quot;\nhttp://thepiratebay.se/user/XWRteam&quot; rel=&quot;nofollow&quot; target=&quot;_NEW&quot;&gt;\nhttp://thepiratebay.se/user/XWRteam&lt;/a&gt;\n\n++++++++++++++++++++++++++++++++++++\n++++++++++++++++++++++++++++++++++++\n\n\nVideo\nID                               : 0\nFormat                           : MPEG-4 Visual\nFormat profile                   : Advanced Simple@L5\nFormat settings, BVOP            : 2\nFormat settings, QPel            : No\nFormat settings, GMC             : No warppoints\nFormat settings, Matrix          : Default (H.263)\nCodec ID                         : XVID\nCodec ID/Hint                    : XviD\nDuration                         : 21mn 35s\nBit rate                         : 955 Kbps\nWidth                            : 624 pixels\nHeight                           : 352 pixels\nDisplay aspect ratio             : 16:9\nFrame rate                       : 23.976 fps\nColor space                      : YUV\nChroma subsampling               : 4:2:0\nBit depth                        : 8 bits\nScan type                        : Progressive\nCompression mode                 : Lossy\nBits/(Pixel*Frame)               : 0.181\nStream size                      : 148 MiB (84%)\nWriting library                  : XviD 1.2.1 (UTC 2008-12-04)\n\nAudio\nID                               : 1\nFormat                           : MPEG Audio\nFormat version                   : Version 1\nFormat profile                   : Layer 3\nCodec ID                         : 55\nCodec ID/Hint                    : MP3\nDuration                         : 21mn 35s\nBit rate mode                    : Variable\nBit rate                         : 128 Kbps\nChannel(s)                       : 2 channels\nSampling rate                    : 48.0 KHz\nCompression mode                 : Lossy\nStream size                      : 25.1 MiB (14%)\nAlignment                        : Aligned on interleaves\nInterleave, duration             : 24 ms (0.58 video frame)\n\n","torrent":{"xt":"urn:btih:97f4ca029043ca88790fa5f20b8ed5fe3a3ffdb5","amp;dn":"2+Broke+Girls+Season+1+Complete+%5BXWRteam%5D","amp;tr":["udp%3A%2F%2Ftracker.openbittorrent.com%3A80","udp%3A%2F%2Fopen.demonii.com%3A1337","udp%3A%2F%2Ftracker.coppersurfer.tk%3A6969","udp%3A%2F%2Fexodus.desync.com%3A6969"],"infoHash":"97f4ca029043ca88790fa5f20b8ed5fe3a3ffdb5","infoHashBuffer":{"type":"Buffer","data":[151,244,202,2,144,67,202,136,121,15,165,242,11,142,213,254,58,63,253,181]},"announce":[],"urlList":[]}}